Coordinates
version=1
nRows=43
nColumns=12
inDegrees=yes

Units are S.I. units (second, meters, Newtons, ...)
Angles are in degrees

endheader
time	SC_y	SC_z	SC_x	AC_y	AC_z	AC_x	GH_y	GH_z	GH_yy	EL_x	PS_y
       0.0               -37.3          20.22          47.58          60.24          -12.4         -14.14          166.3          17.08          33.78           41.6          116.0
   0.04329               -37.3          20.22          47.58          60.24          -12.4         -14.14          166.3          17.09           33.8          41.62          116.0
   0.08658               -37.3          20.22          47.58          60.24          -12.4         -14.14          166.3           17.1          33.82          41.63          116.0
    0.1299               -37.3          20.22          47.58          60.23          -12.4         -14.14          166.3           17.1          33.84          41.65          116.0
    0.1732               -37.3          20.22          47.58          60.23          -12.4         -14.13          166.2          17.11          33.86          41.66          116.0
    0.2165              -37.29          20.22          47.58          60.22          -12.4         -14.13          166.2          17.12          33.88          41.68          116.0
    0.2598              -37.29          20.22          47.58          60.22          -12.4         -14.13          166.2          17.13          33.91           41.7          116.0
     0.303              -37.29          20.22          47.58          60.21          -12.4         -14.13          166.2          17.14          33.94          41.72          116.0
    0.3463              -37.29          20.21          47.58          60.21         -12.41         -14.13          166.1          17.15          33.97          41.74          116.0
    0.3896              -37.29          20.21          47.59           60.2         -12.41         -14.12          166.1          17.16           34.0          41.76          116.0
    0.4329              -37.29          20.21          47.59          60.19         -12.41         -14.12          166.1          17.17          34.03          41.78          116.0
    0.4762              -37.29          20.21          47.59          60.19         -12.41         -14.12          166.0          17.18          34.07          41.81          116.0
    0.5195              -37.29          20.21          47.59          60.18         -12.41         -14.12          166.0           17.2          34.11          41.84          116.0
    0.5628              -37.29          20.21          47.59          60.17         -12.41         -14.11          166.0          17.21          34.15          41.87          116.0
    0.6061              -37.29           20.2          47.59          60.16         -12.41         -14.11          165.9          17.23           34.2           41.9          116.0
    0.6494              -37.28           20.2          47.59          60.15         -12.41         -14.11          165.9          17.24          34.25          41.93          116.0
    0.6927              -37.28           20.2           47.6          60.14         -12.41          -14.1          165.8          17.26           34.3          41.97          116.0
     0.736              -37.28           20.2           47.6          60.13         -12.41          -14.1          165.8          17.28          34.36          42.01          116.0
    0.7793              -37.28           20.2           47.6          60.11         -12.41         -14.09          165.7          17.31          34.43          42.06          116.0
    0.8225              -37.28          20.19           47.6           60.1         -12.41         -14.09          165.6          17.33           34.5          42.11          115.9
    0.8658              -37.27          20.19          47.61          60.08         -12.41         -14.08          165.6          17.36          34.57          42.16          115.9
    0.9091              -37.27          20.19          47.61          60.07         -12.42         -14.08          165.5          17.39          34.66          42.22          115.9
    0.9524              -37.27          20.18          47.61          60.05         -12.42         -14.07          165.4          17.42          34.75          42.29          115.9
    0.9957              -37.27          20.18          47.62          60.03         -12.42         -14.06          165.3          17.45          34.86          42.36          115.9
     1.039              -37.26          20.17          47.62          60.01         -12.42         -14.06          165.2          17.49          34.98          42.44          115.9
     1.082              -37.26          20.17          47.62          59.98         -12.42         -14.05          165.1          17.54          35.11          42.53          115.9
     1.126              -37.26          20.16          47.63          59.95         -12.43         -14.04          164.9          17.59          35.25          42.64          115.9
     1.169              -37.25          20.16          47.63          59.92         -12.43         -14.02          164.8          17.65          35.41          42.75          115.8
     1.212              -37.25          20.15          47.64          59.88         -12.43         -14.01          164.6          17.71           35.6          42.88          115.8
     1.255              -37.24          20.14          47.65          59.84         -12.43          -14.0          164.4          17.78          35.81          43.03          115.8
     1.299              -37.23          20.13          47.66          59.79         -12.44         -13.98          164.2          17.86          36.05           43.2          115.8
     1.342              -37.22          20.12          47.67          59.74         -12.44         -13.96          163.9          17.96          36.32          43.39          115.7
     1.385              -37.22          20.11          47.68          59.67         -12.45         -13.94          163.6          18.07          36.64          43.61          115.7
     1.429               -37.2          20.09          47.69           59.6         -12.45         -13.91          163.3          18.19          37.01          43.87          115.7
     1.472              -37.19          20.07           47.7          59.51         -12.46         -13.88          162.8          18.34          37.44          44.17          115.6
     1.515              -37.18          20.05          47.72          59.41         -12.47         -13.85          162.4          18.52          37.95          44.53          115.5
     1.559              -37.16          20.03          47.74          59.29         -12.48          -13.8          161.8          18.72          38.56          44.95          115.5
     1.602              -37.14           20.0          47.77          59.15         -12.49         -13.75          161.1          18.97          39.28          45.46          115.4
     1.645              -37.11          19.96           47.8          58.97          -12.5         -13.69          160.3          19.27          40.16          46.08          115.3
     1.688              -37.08          19.92          47.84          58.76         -12.52         -13.62          159.2          19.64          41.23          46.83          115.2
     1.732              -37.05          19.87          47.88           58.5         -12.54         -13.52          158.0           20.1          42.55          47.76          115.0
     1.775               -37.0           19.8          47.94          58.17         -12.56         -13.41          156.4          20.66           44.2          48.91          114.8
     1.818              -36.94          19.72          48.01          57.76          -12.6         -13.26          154.4          21.37          46.27          50.37          114.6
